<?xml version="1.0" encoding="UTF-8"?>
<svg version="1.1" xmlns="http://www.w3.org/2000/svg" width="1024" height="1024">
<path d="M0 0 C337.92 0 675.84 0 1024 0 C1024 337.92 1024 675.84 1024 1024 C686.08 1024 348.16 1024 0 1024 C0 686.08 0 348.16 0 0 Z " fill="#101010" transform="translate(0,0)"/>
<path d="M0 0 C1.34431593 -0.00345928 2.68862903 -0.00822566 4.03293622 -0.01418173 C7.71673592 -0.02668466 11.40030194 -0.02052462 15.08410239 -0.01122308 C19.06102807 -0.00442987 23.03791382 -0.01491525 27.01483154 -0.02316284 C34.8021203 -0.0365002 42.58932229 -0.03362221 50.37661444 -0.02492492 C56.70694621 -0.01814783 63.03725368 -0.01723177 69.36758804 -0.02049637 C70.71941929 -0.02118592 70.71941929 -0.02118592 72.09856025 -0.0218894 C73.92943994 -0.02284858 75.76031962 -0.02382122 77.59119929 -0.02480717 C94.75871593 -0.03336133 111.92618451 -0.02352704 129.09369327 -0.00740607 C143.81778615 0.00599257 158.54180806 0.00367281 173.26589966 -0.01016235 C190.36918243 -0.02622557 207.47242306 -0.03253255 224.57571232 -0.02332556 C226.40044156 -0.02236993 228.2251708 -0.02142682 230.04990005 -0.02049637 C230.94766868 -0.02003354 231.8454373 -0.01957072 232.77041104 -0.01909386 C239.09064276 -0.01650586 245.41084771 -0.02087098 251.73107529 -0.02793503 C259.43708148 -0.03635867 267.14299601 -0.03405193 274.84899174 -0.0180928 C278.77922378 -0.01022099 282.70930316 -0.00709974 286.639534 -0.01704025 C290.24075528 -0.02601066 293.84168306 -0.02101601 297.4428779 -0.0051076 C299.35559474 -0.0001941 301.26833211 -0.00993545 303.18102729 -0.02027929 C312.82131814 0.04534812 320.85465432 1.27000478 327.91139364 8.2399016 C335.03280531 16.1352831 335.56407555 24.55561336 335.46401978 34.77232361 C335.46835513 36.21410318 335.47487687 37.65587753 335.48337984 39.09763855 C335.50029754 43.03704341 335.48624233 46.97580829 335.46686506 50.91517913 C335.45138999 55.17222657 335.46485227 59.42919802 335.47460938 63.68624878 C335.48911374 72.01662099 335.47692456 80.34674894 335.45549613 88.67709798 C335.43144954 98.38253945 335.43320274 108.08792539 335.43580204 117.79339003 C335.43948984 135.1122598 335.41868673 152.43101469 335.384552 169.74984741 C335.35145709 186.54740298 335.33729487 203.34483802 335.34353638 220.14242554 C335.35030345 238.44442181 335.34783153 256.74636764 335.32817698 275.04835647 C335.32661775 276.50061405 335.32661775 276.50061405 335.32502702 277.98221017 C335.32293616 279.92660679 335.32082519 281.87100339 335.31869385 283.81539996 C335.31180441 290.57748956 335.31112791 297.33956359 335.31257629 304.10165596 C335.31401737 312.34375675 335.3043001 320.58575939 335.28062993 328.82782764 C335.26878647 333.03148048 335.26163381 337.23499667 335.2674675 341.43866539 C335.27265368 345.2895799 335.26390071 349.14020619 335.2441929 352.99107146 C335.23946818 354.38122508 335.23973385 355.77140692 335.24560326 357.16155619 C335.28435427 367.32461503 334.77697744 376.15094096 327.58865356 383.87704468 C321.94893698 388.73451869 315.5784048 390.50192509 308.26862812 390.515172 C307.12714386 390.51962985 305.98565961 390.52408769 304.80958492 390.52868062 C303.55503527 390.52849626 302.30048562 390.5283119 301.00791931 390.52812195 C299.66207053 390.53142188 298.31622273 390.53514772 296.97037619 390.53926343 C293.26847297 390.54927674 289.56658596 390.55299914 285.86467111 390.55565274 C281.87338661 390.55955773 277.88211493 390.56913589 273.89083862 390.5778656 C264.25055815 390.59762373 254.61027664 390.60769507 244.96998098 390.61659339 C240.4299804 390.62097706 235.88998097 390.62634364 231.34998131 390.63158226 C216.25793226 390.64859334 201.16588395 390.66308775 186.07382679 390.670331 C182.15778922 390.67224089 178.24175166 390.67416122 174.32571411 390.67611694 C173.35240588 390.67660068 172.37909765 390.67708442 171.37629523 390.67758282 C155.60750201 390.68588407 139.83878463 390.71122313 124.07002453 390.74369762 C107.88016524 390.77676752 91.69034451 390.79477967 75.50045127 390.79797524 C66.41056502 390.80014032 57.32078938 390.8088888 48.23093605 390.83443642 C40.49008643 390.85614239 32.7493743 390.86419432 25.00849769 390.85446963 C21.06000287 390.84992472 17.11179172 390.85182211 13.1633358 390.87123108 C9.54528584 390.8888621 5.92772653 390.88786597 2.30967136 390.87233379 C0.38784267 390.86883594 -1.53399116 390.88498451 -3.45574826 390.90193826 C-11.9656885 390.83868886 -17.71446412 389.1073226 -24.90744019 384.69345093 C-30.82284231 378.61373208 -33.2759948 371.80837476 -33.29445457 363.46623039 C-33.29952912 362.24872813 -33.30460366 361.03122587 -33.30983198 359.7768296 C-33.31043363 358.42383126 -33.31093272 357.07083288 -33.31134033 355.71783447 C-33.31535593 354.28195264 -33.31979431 352.84607194 -33.32461989 351.41019261 C-33.33658035 347.45938769 -33.34223261 343.50859497 -33.34680104 339.5577755 C-33.35275909 335.29857457 -33.3643684 331.03938823 -33.37509155 326.78019714 C-33.39961027 316.49178106 -33.41424161 306.20336015 -33.42715162 295.91492385 C-33.43086383 293.00898103 -33.43483704 290.10303869 -33.43890429 287.19709635 C-33.46414026 269.15096862 -33.48619301 251.10484013 -33.49863243 233.05869865 C-33.50156212 228.87900668 -33.50452378 224.69931472 -33.50753784 220.5196228 C-33.50828389 219.48078336 -33.50902994 218.44194391 -33.5097986 217.37162448 C-33.52245229 200.54298113 -33.55567599 183.71444343 -33.59733967 166.88584946 C-33.63976547 149.60778423 -33.66332818 132.32977308 -33.66855299 115.05165589 C-33.67196629 105.35082096 -33.68371198 95.65015117 -33.71665573 85.94936752 C-33.74466619 77.68774488 -33.75565117 69.42632122 -33.74446027 61.16465478 C-33.73927624 56.95067457 -33.74214351 52.73711103 -33.76692581 48.52319145 C-33.78944743 44.6613778 -33.78865647 40.80027941 -33.76972194 36.93845297 C-33.76692597 35.54539264 -33.77249818 34.15228351 -33.78753488 32.75930153 C-33.88414238 23.2224957 -32.86253915 15.44335284 -26.16762769 8.24003303 C-18.09724571 0.54896581 -10.77264591 -0.05804908 0 0 Z " fill="#832ECC" transform="translate(587.1574401855469,210.61904907226563)"/>
<path d="M0 0 C0.98773911 -0.00256805 1.97547821 -0.00513611 2.9931488 -0.00778198 C6.30448275 -0.01273706 9.61535883 0.00380549 12.926651 0.02018738 C15.34046953 0.02110658 17.75428887 0.02070557 20.16810703 0.01909161 C26.6299191 0.01841456 33.09156437 0.03579722 39.5533371 0.05692291 C45.61768111 0.0740126 51.68198463 0.07481254 57.74635315 0.07695007 C75.47973297 0.09268963 93.21308179 0.13457311 110.94642639 0.17326355 C170.37736389 0.26607605 170.37736389 0.26607605 231.00892639 0.36076355 C231.00892639 87.81076355 231.00892639 175.26076355 231.00892639 265.36076355 C204.01080139 265.52576355 177.01267639 265.69076355 149.19642639 265.86076355 C136.42540222 265.9700116 136.42540222 265.9700116 123.39637756 266.08146667 C112.97242737 266.11759949 112.97242737 266.11759949 108.08724976 266.12431335 C104.68647214 266.13174528 101.2867009 266.16163432 97.88619995 266.20536804 C93.53885935 266.26053229 89.19296702 266.27664152 84.8453089 266.26534176 C83.25589739 266.26770194 81.6664316 266.28339862 80.07732236 266.3144846 C69.31631607 266.51509018 63.20824882 264.46667914 55.00892639 257.36076355 C52.13254823 255.6172714 49.18558635 254.14654746 46.13392639 252.73576355 C44.94222839 252.17792175 44.94222839 252.17792175 43.72645569 251.60881042 C16.30453041 239.25654378 -15.45953661 236.96896945 -43.87388611 247.38102722 C-60.47810382 253.87030635 -84.88036448 265.52116062 -93.366745 282.03823853 C-97.49297981 289.52650891 -97.49297981 289.52650891 -101.84386444 290.97951508 C-107.49582942 291.93980089 -113.22314394 291.62124545 -118.92857361 291.4349823 C-120.777973 291.41444393 -122.6274326 291.39879621 -124.47691345 291.38781738 C-129.3249942 291.34598503 -134.16940008 291.23809649 -139.01603699 291.11607361 C-143.96944971 291.00317039 -148.92346149 290.95322866 -153.87779236 290.89787292 C-163.58408703 290.78019736 -173.28669865 290.58686587 -182.99107361 290.36076355 C-182.99107361 278.81076355 -182.99107361 267.26076355 -182.99107361 255.36076355 C-154.77607361 254.86576355 -154.77607361 254.86576355 -125.99107361 254.36076355 C-123.64905904 249.67673442 -124.67915931 242.68131795 -124.64097595 237.47599792 C-124.62440877 235.81927958 -124.59710821 234.16263294 -124.5589447 232.50627136 C-124.50417131 230.11624637 -124.48230487 227.72789412 -124.46763611 225.33732605 C-124.44496674 224.59866302 -124.42229736 223.86 -124.39894104 223.09895325 C-124.4129419 219.6898174 -124.75814771 217.68316805 -126.7686615 214.90031433 C-131.76956898 212.51106344 -136.59710583 212.75732414 -142.07310486 212.75138855 C-143.82707832 212.72658417 -143.82707832 212.72658417 -145.6164856 212.70127869 C-149.34556813 212.65275379 -153.0742427 212.63141668 -156.80357361 212.61076355 C-159.33419314 212.5826078 -161.86479363 212.55268094 -164.39537048 212.5209198 C-170.59386402 212.44699336 -176.79224261 212.39537706 -182.99107361 212.36076355 C-183.09118315 207.32948885 -183.16311662 202.29881457 -183.21080017 197.26676941 C-183.23071198 195.5609373 -183.25785174 193.85517157 -183.29283142 192.14958191 C-183.6223185 175.65100096 -181.63058156 162.71093465 -169.92466736 150.14201355 C-161.17185336 141.74933323 -150.34965617 138.61735031 -138.85435486 135.61857605 C-136.96196663 135.1115349 -135.06957907 134.60449125 -133.17722607 134.09731865 C-130.54786188 133.39519055 -127.91620827 132.70186606 -125.28453064 132.00846863 C-109.9878264 127.97220491 -94.69274966 123.91604415 -79.47154236 119.60295105 C-78.00519096 119.19944931 -78.00519096 119.19944931 -76.50921631 118.78779602 C-70.67063247 117.10753144 -65.39860641 115.51158646 -61.56846619 110.49894714 C-57.6610507 102.19724664 -54.70515267 93.53997306 -51.69007874 84.88435364 C-50.66013349 81.93292117 -49.6190988 78.98561756 -48.57481384 76.03923035 C-45.27112573 66.71264634 -41.99249016 57.37811332 -38.76266479 48.02568054 C-37.37636476 44.02690765 -35.97039232 40.03522787 -34.56031799 36.04478455 C-33.89618744 34.15049553 -33.24084876 32.2530981 -32.59492493 30.3525238 C-24.81051129 7.4684867 -24.81051129 7.4684867 -13.96636105 1.7718153 C-9.35576477 -0.13767927 -4.92924355 -0.04696693 0 0 Z " fill="#832ECD" transform="translate(284.99107360839844,360.6392364501953)"/>
<path d="M0 0 C1.91256592 0.00966797 1.91256592 0.00966797 3.86376953 0.01953125 C24.12851129 0.41087171 41.72203502 7.87158699 56.8125 21.5 C57.55757812 22.15226563 58.30265625 22.80453125 59.0703125 23.4765625 C75.2529762 38.53151445 84.31752551 59.71217135 85.21459961 81.68920898 C85.59263816 104.36370031 76.87490332 125.69239843 61.8125 142.5 C48.47806084 156.03412294 33.03639949 163.20707218 14.8125 167.5 C14.02359375 167.6959375 13.2346875 167.891875 12.421875 168.09375 C-8.2339336 171.30962439 -30.23312969 166.20447786 -47.5 154.5390625 C-65.90828415 140.57231202 -80.24123103 121.27273844 -83.71484375 97.9609375 C-86.41651177 75.28714979 -82.60605906 52.56401082 -68.375 34.125 C-67.00608294 32.55938418 -65.60877783 31.01824113 -64.1875 29.5 C-63.37667969 28.59894531 -62.56585938 27.69789063 -61.73046875 26.76953125 C-45.38762449 9.42170974 -23.86156119 -0.12650264 0 0 Z " fill="#832ECD" transform="translate(280.1875,637.5)"/>
<path d="M0 0 C2.6061401 2.00201012 5.11425531 4.09375547 7.61523438 6.22631836 C8.2778125 6.77545898 8.94039062 7.32459961 9.62304688 7.89038086 C22.88881979 19.92212839 32.23440973 39.78068237 33.91723633 57.38574219 C34.05096572 60.60988577 34.08281184 63.8121082 34.05273438 67.03881836 C34.04588623 68.17593262 34.03903809 69.31304688 34.03198242 70.48461914 C33.8638684 79.31847574 32.73579989 86.90822077 29.61523438 95.22631836 C29.25300781 96.26401367 28.89078125 97.30170898 28.51757812 98.37084961 C20.51417379 119.50526309 3.58520528 136.22692952 -16.76318359 145.54174805 C-37.8644979 154.64573748 -60.13775127 154.79925222 -81.54101562 146.68334961 C-90.02796153 143.2875792 -97.28488424 139.04379096 -104.38476562 133.22631836 C-105.07699219 132.69651367 -105.76921875 132.16670898 -106.48242188 131.62084961 C-123.01828187 118.30668799 -132.21847483 97.78662496 -134.96679688 77.13256836 C-137.46469948 53.78768416 -130.71251333 32.54705065 -116.08398438 14.36694336 C-113.92212533 11.90264807 -111.70036488 9.54610495 -109.38476562 7.22631836 C-108.78535156 6.61530273 -108.1859375 6.00428711 -107.56835938 5.37475586 C-78.46949545 -22.15289511 -31.71293132 -23.33433206 0 0 Z " fill="#832ECD" transform="translate(757.384765625,653.773681640625)"/>
<path d="M0 0 C1.19266479 -0.02658691 1.19266479 -0.02658691 2.40942383 -0.05371094 C6.98429429 -0.04779707 10.05125156 0.25547697 13.6875 3.3125 C34.22472907 34.1183436 17.6875 77.28848377 17.6875 114.3125 C-57.2225 114.3125 -132.1325 114.3125 -209.3125 114.3125 C-207.29723023 110.28196045 -204.86722601 107.23378283 -201.9375 103.875 C-201.40294189 103.25810303 -200.86838379 102.64120605 -200.31762695 102.00561523 C-187.03417322 86.75525221 -173.26866065 71.80088433 -157.3125 59.3125 C-156.20717036 58.39750093 -155.10445129 57.4793421 -154.00390625 56.55859375 C-144.00017333 48.25301267 -133.38600297 41.11341034 -122.3125 34.3125 C-121.58224609 33.86132812 -120.85199219 33.41015625 -120.09960938 32.9453125 C-92.14452577 15.90897346 -60.53743839 6.74675327 -28.3125 2.3125 C-27.49168945 2.19535645 -26.67087891 2.07821289 -25.82519531 1.95751953 C-17.22694049 0.75447889 -8.68270988 0.11646827 0 0 Z " fill="#832ECD" transform="translate(498.3125,211.6875)"/>
<path d="M0 0 C74.25 0 148.5 0 225 0 C223.79030665 3.02423338 222.63964925 5.83355916 221.1953125 8.71484375 C209.78731316 31.87720578 206.34317411 56.40221878 210 82 C144.99 82 79.98 82 13 82 C13.33 78.7 13.66 75.4 14 72 C15.39351556 46.770641 11.68023739 24.46199498 0 2 C0 1.34 0 0.68 0 0 Z " fill="#832ECC" transform="translate(383,660)"/>
<path d="M0 0 C0.93790878 -0.0071553 1.87581757 -0.01431061 2.84214783 -0.02168274 C3.87438477 -0.02437164 4.9066217 -0.02706055 5.97013855 -0.02983093 C7.05479904 -0.03640213 8.13945953 -0.04297333 9.25698853 -0.04974365 C12.85823123 -0.06950783 16.45943219 -0.08114567 20.06071472 -0.09111023 C21.2882868 -0.09518576 22.51585888 -0.09926128 23.78063011 -0.10346031 C29.60640639 -0.12217957 35.43216618 -0.1367429 41.25796682 -0.14507228 C47.98139553 -0.15484387 54.70449495 -0.18116083 61.42780763 -0.22157317 C67.25197531 -0.25537871 73.07603254 -0.26721784 78.90028954 -0.27127647 C81.37745587 -0.27615622 83.85461833 -0.28780938 86.33172035 -0.30631447 C89.79609707 -0.3305879 93.25960958 -0.32976213 96.7240448 -0.32279968 C97.75020905 -0.33560974 98.77637329 -0.3484198 99.83363342 -0.36161804 C104.26286936 -0.32911927 106.81263052 -0.29843842 110.65475464 2.05154419 C114.02224945 5.79248176 113.70096485 9.00800433 113.71818542 13.82221985 C113.72475662 14.61427322 113.73132782 15.4063266 113.73809814 16.22238159 C113.75784636 18.84965606 113.76949706 21.47687334 113.77946472 24.10420227 C113.78354025 25.00079748 113.78761578 25.89739269 113.7918148 26.82115746 C113.81268199 31.56662644 113.82698092 36.31206645 113.83634949 41.05757141 C113.84741565 45.96049273 113.88181597 50.86296041 113.92152119 55.76572132 C113.94766003 59.53440193 113.95603888 63.302974 113.95963097 67.07173729 C113.96450397 68.87905122 113.97613825 70.68636008 113.99466896 72.49358559 C114.01900288 75.02406939 114.01810623 77.55337375 114.01115417 80.0839386 C114.03036926 81.20240173 114.03036926 81.20240173 114.04997253 82.34346008 C114.00110849 87.22678187 113.02489819 89.72509521 109.54118347 93.14717102 C106.92565083 94.45493734 104.99429488 94.28200967 102.06407166 94.29434204 C100.90042587 94.30149734 99.73678009 94.30865265 98.53787231 94.31602478 C97.25473648 94.31871368 95.97160065 94.32140259 94.64958191 94.32417297 C93.28957953 94.33043698 91.92957886 94.33708372 90.56958008 94.34408569 C86.86900641 94.36150263 83.16844566 94.37204961 79.46784115 94.38029122 C77.15581221 94.38544057 74.84378728 94.39151637 72.53176117 94.39780235 C65.29799439 94.41685752 58.06423783 94.43108721 50.83045077 94.43941432 C42.48041635 94.44918497 34.13064714 94.4754984 25.78070617 94.51591522 C19.32712 94.54608071 12.87360983 94.56088365 6.41995454 94.56419533 C2.56540559 94.5665456 -1.28886013 94.5755023 -5.14333344 94.60065651 C-8.77134581 94.62394975 -12.39888876 94.62816577 -16.02695656 94.61789513 C-17.9891423 94.61716426 -19.95130426 94.63624739 -21.91339111 94.65596008 C-32.84780745 94.59133759 -32.84780745 94.59133759 -37.45881653 90.14717102 C-40.18105006 83.21393705 -36.55647851 76.36773423 -34.17366028 69.71748352 C-33.71445519 68.40104006 -33.25659942 67.08412524 -32.80001831 65.76676941 C-31.59429431 62.29971843 -30.37034288 58.83937918 -29.14241028 55.38014221 C-27.91714035 51.91833367 -26.70913854 48.45051868 -25.49983215 44.98310852 C-23.87479188 40.32707135 -22.23939975 35.67495966 -20.58936501 31.02772141 C-18.88152282 26.21745197 -17.19686941 21.40463177 -15.61164856 16.55244446 C-15.3471138 15.75611603 -15.08257904 14.9597876 -14.81002808 14.139328 C-14.15341075 12.15079161 -13.51331474 10.15681895 -12.87507629 8.16230774 C-10.21680413 2.50299705 -6.05637822 0.03165628 0 0 Z " fill="#101011" transform="translate(295.4588165283203,392.8528289794922)"/>
<path d="M0 0 C8.82895013 6.49276745 16.51104936 16.50300557 18.2734375 27.671875 C19.12135432 42.44519494 16.90758188 54.31602248 7.6484375 66.296875 C0.75276989 73.9587279 -10.28108516 80.04164771 -20.63720703 80.81445312 C-35.83896561 81.49799171 -47.06214911 79.20519376 -58.7265625 68.671875 C-64.66766313 62.09280383 -68.29143054 55.16044235 -70.7265625 46.671875 C-70.91863281 46.03378906 -71.11070312 45.39570312 -71.30859375 44.73828125 C-73.74157615 32.70979817 -70.70326668 22.00710032 -64.25 11.91796875 C-57.26695258 1.62245011 -47.40668671 -5.02774461 -35.27734375 -7.91015625 C-22.64496069 -9.98008732 -10.66852 -6.97424285 0 0 Z " fill="#101010" transform="translate(306.7265625,685.328125)"/>
<path d="M0 0 C1.96346391 1.41826908 3.69899273 2.90596071 5.44921875 4.578125 C6.06023437 5.11308594 6.67125 5.64804687 7.30078125 6.19921875 C15.31305692 13.5807408 19.78395722 23.28458706 20.76953125 34.08984375 C21.1784958 47.35392728 18.19123477 58.44167697 9.44921875 68.578125 C1.82550634 76.67732883 -8.54297114 82.31716596 -19.78515625 82.9140625 C-34.57116862 83.21127694 -45.50534041 80.05932781 -56.5546875 69.69921875 C-66.19058801 59.39733808 -69.24663533 47.40329107 -68.86328125 33.625 C-68.33319905 24.25137976 -64.78807925 16.48851271 -58.55078125 9.578125 C-58.00292969 8.96195313 -57.45507812 8.34578125 -56.890625 7.7109375 C-41.74073617 -8.37072126 -19.0204303 -10.60250633 0 0 Z " fill="#101010" transform="translate(730.55078125,683.421875)"/>
<path d="M0 0 C8.72786124 -0.09293927 17.45555047 -0.16388558 26.18379974 -0.20724869 C30.23729511 -0.22806754 34.29045034 -0.25627957 38.34375 -0.30175781 C42.2600689 -0.34542098 46.17606194 -0.36917994 50.09260559 -0.37950897 C51.58206812 -0.38686386 53.0715141 -0.40122599 54.56083679 -0.42292023 C62.5821008 -0.53504822 69.1456006 -0.60972086 76 4 C79.92159826 8.12799817 82.23538922 11.85937448 82.29052734 17.59399414 C82.30328705 18.49916275 82.31604675 19.40433136 82.32919312 20.33692932 C82.33141876 21.30984421 82.33364441 22.28275909 82.3359375 23.28515625 C82.3459227 24.80235512 82.3459227 24.80235512 82.35610962 26.35020447 C82.36623332 28.4928099 82.37092673 30.63544685 82.37060547 32.77807617 C82.37495173 36.02642282 82.41120036 39.27338049 82.44921875 42.52148438 C82.45509264 44.60937039 82.4590582 46.69726282 82.4609375 48.78515625 C82.47530853 49.74390152 82.48967957 50.70264679 82.50448608 51.69044495 C82.44825626 60.16370852 80.6962368 68.53886876 74.8125 74.9375 C67.53979566 81.37900563 60.0758573 82.5851411 50.62109375 82.390625 C49.56841812 82.38496521 48.51574249 82.37930542 47.4311676 82.37347412 C44.09946426 82.35124884 40.7688732 82.30107768 37.4375 82.25 C35.16603126 82.22991714 32.8945455 82.21166951 30.62304688 82.1953125 C25.08165768 82.15142971 19.54090834 82.08465777 14 82 C14.07001221 81.17105225 14.14002441 80.34210449 14.2121582 79.48803711 C16.35810174 53.07832172 14.17426612 28.20373636 1.3203125 4.5546875 C0 2 0 2 0 0 Z " fill="#832ECD" transform="translate(809,660)"/>
<path d="M0 0 C22.44 0 44.88 0 68 0 C66.35 6.27 64.7 12.54 63 19 C62.34653161 23.5742787 61.87241087 27.42838972 61.8671875 31.94921875 C61.86589844 33.04556641 61.86460937 34.14191406 61.86328125 35.27148438 C61.86908203 36.96241211 61.86908203 36.96241211 61.875 38.6875 C61.87113281 39.79544922 61.86726563 40.90339844 61.86328125 42.04492188 C61.86521484 43.69911133 61.86521484 43.69911133 61.8671875 45.38671875 C61.86887939 46.85951294 61.86887939 46.85951294 61.87060547 48.36206055 C62.0565797 53.59074371 62.5337906 58.78978594 63 64 C55.86511443 64.10166265 48.73041662 64.17157591 41.5949707 64.21972656 C39.16911844 64.23980571 36.74331437 64.26707475 34.31762695 64.30175781 C30.82491138 64.35043678 27.33283741 64.3730065 23.83984375 64.390625 C22.76041 64.41127014 21.68097626 64.43191528 20.5688324 64.45318604 C10.75643198 64.45609096 10.75643198 64.45609096 6.47247314 61.49441528 C0.84366459 55.78172873 -0.57042461 48.96936779 -0.5657959 41.20239258 C-0.54021606 40.1739624 -0.51463623 39.14553223 -0.48828125 38.0859375 C-0.48324585 37.11309814 -0.47821045 36.14025879 -0.47302246 35.13793945 C-0.44712425 31.54998744 -0.37731979 27.96245993 -0.3125 24.375 C-0.209375 16.33125 -0.10625 8.2875 0 0 Z " fill="#842ECD" transform="translate(102,678)"/>
<path d="M0 0 C0.85332916 -0.0066568 1.70665833 -0.0133136 2.58584595 -0.02017212 C4.39314617 -0.03030728 6.20048389 -0.03498887 8.0078125 -0.03466797 C10.77146286 -0.03903469 13.53350811 -0.07532562 16.296875 -0.11328125 C18.05207787 -0.11915056 19.80728833 -0.12311919 21.5625 -0.125 C22.38865814 -0.13937103 23.21481628 -0.15374207 24.06600952 -0.16854858 C29.79262805 -0.12302532 29.79262805 -0.12302532 32.9362793 2.19873047 C34.81061595 4.90944301 34.91904138 6.56096245 34.8515625 9.8359375 C34.85027344 10.774375 34.84898437 11.7128125 34.84765625 12.6796875 C34.31585595 15.93756319 33.84997229 17.08452614 31.4140625 19.3359375 C28.38476997 19.72834775 25.72407254 19.87311523 22.6953125 19.83203125 C21.84102661 19.83348648 20.98674072 19.83494171 20.10656738 19.83644104 C18.30099069 19.83478158 16.49539992 19.82321493 14.68994141 19.80249023 C11.92419431 19.77354354 9.1603645 19.78187781 6.39453125 19.79492188 C4.64061567 19.78868421 2.88670615 19.78029305 1.1328125 19.76953125 C-0.10946106 19.77393471 -0.10946106 19.77393471 -1.37683105 19.77842712 C-7.13291369 19.6837181 -7.13291369 19.6837181 -9.30529785 18.01600647 C-11.38770757 15.28409671 -10.94355573 12.62953961 -10.8984375 9.2734375 C-10.89457031 8.02433594 -10.89070313 6.77523437 -10.88671875 5.48828125 C-10.2518104 -1.16588804 -5.4259603 0.0145461 0 0 Z " fill="#0F100F" transform="translate(374.5859375,523.6640625)"/>
<path d="M0 0 C0 0.66 0 1.32 0 2 C-2.2243364 2.49914303 -4.44926448 2.99503066 -6.67578125 3.484375 C-8.41242773 3.86964783 -10.14490922 4.27378264 -11.875 4.6875 C-14 5 -14 5 -17 4 C-15.75108386 3.51801537 -14.50081192 3.03954323 -13.25 2.5625 C-12.55390625 2.29566406 -11.8578125 2.02882813 -11.140625 1.75390625 C-7.29793578 0.40055037 -4.08542913 -0.11348414 0 0 Z " fill="#8D30D8" transform="translate(179,489)"/>
<path d="M0 0 C0.33 0.66 0.66 1.32 1 2 C0.00390625 4.1640625 0.00390625 4.1640625 -1.4375 6.625 C-1.91058594 7.44226563 -2.38367188 8.25953125 -2.87109375 9.1015625 C-3.24363281 9.72804688 -3.61617187 10.35453125 -4 11 C-4.99 11 -5.98 11 -7 11 C-4.69 7.37 -2.38 3.74 0 0 Z " fill="#9332E3" transform="translate(748,739)"/>
<path d="M0 0 C0.33 0 0.66 0 1 0 C1 2.64 1 5.28 1 8 C0.34 8 -0.32 8 -1 8 C-1 8.99 -1 9.98 -1 11 C-1.66 11 -2.32 11 -3 11 C-2.01 7.37 -1.02 3.74 0 0 Z " fill="#15121D" transform="translate(269,441)"/>
<path d="M0 0 C1.15941038 3.47823115 0.70820884 5.45895578 0 9 C-0.66 9 -1.32 9 -2 9 C-1.125 1.125 -1.125 1.125 0 0 Z " fill="#8E30DD" transform="translate(201,693)"/>
</svg>
